#!OML:ASF H:\Terrain\Patient Classification 1\Animal2\Wednesday\Animal2.ASF
:FULLY-SPECIFIED
:DEGREES
767
root 12.7907 17.9751 -22.2997 9.38913 -24.0311 0.472662
lowerback 6.14711 -2.52317 0.21971
upperback -4.57347 -3.35938 0.278596
thorax -8.25797 -1.65235 0.614602
lowerneck 9.94737 7.36987 14.4179
upperneck -22.5632 7.99915 -23.3375
head -6.59833 4.89154 -11.0909
rclavicle 1.85887e-014 8.67198e-015
rhumerus -33.0262 -10.6981 -57.1315
rradius 58.2075
rwrist 12.06
rhand -14.0871 12.5321
rfingers 7.12502
rthumb 12.0451 -17.1012
lclavicle 1.85887e-014 8.67198e-015
lhumerus -33.5097 -6.89058 58.1294
lradius 50.1106
lwrist 16.5126
lhand -27.7262 24.9686
lfingers 7.12502
lthumb -1.12151 54.9454
rfemur -14.6354 -4.20352 21.0992
rtibia 25.8095
rfoot -17.9297 7.61474
rtoes 29.4003
lfemur -11.3683 -2.4038 -20.6813
ltibia 19.9179
lfoot -14.9577 10.2921
ltoes -27.4415
768
root 12.7854 17.9796 -22.2977 9.33214 -24.0968 0.400605
lowerback 6.23123 -2.50445 0.159825
upperback -4.54219 -3.33577 0.327198
thorax -8.2669 -1.63534 0.699113
lowerneck 9.38964 7.33977 14.8518
upperneck -21.7899 7.97634 -23.8656
head -6.19801 4.86848 -11.2521
rclavicle -4.8901e-014 -1.10077e-014
rhumerus -33.3322 -10.0699 -59.0728
rradius 58.0016
rwrist 11.5063
rhand -13.2676 12.5926
rfingers 7.12502
rthumb 12.8353 -16.9928
lclavicle -4.8901e-014 -1.10077e-014
lhumerus -34.0128 -8.1332 60.012
lradius 50.5488
lwrist 16.5115
lhand -26.837 25.1964
lfingers 7.12502
lthumb -0.262632 55.176
rfemur -14.5306 -4.3382 21.135
rtibia 25.8044
rfoot -17.6775 7.94238
rtoes 29.3782
lfemur -11.267 -2.37793 -20.6338
ltibia 19.9766
lfoot -14.8415 10.3749
ltoes -27.1401
769
root 12.78 17.9861 -22.2993 9.34753 -24.1771 0.0709189
lowerback 6.29176 -2.46987 0.330575
upperback -4.39604 -3.26593 0.388339
thorax -8.15093 -1.60904 0.6571
lowerneck 9.52694 7.37097 14.5328
upperneck -22.154 7.98755 -23.5397
head -6.37388 4.8765 -11.1171
rclavicle -2.22748e-014 2.08724e-015
rhumerus -33.4847 -9.66601 -61.0844
rradius 57.614
rwrist 11.0074
rhand -12.555 12.6921
rfingers 7.12502
rthumb 13.5222 -16.8489
lclavicle -2.22748e-014 2.08724e-015
lhumerus -34.2212 -9.44629 61.9721
lradius 50.7123
lwrist 16.7229
lhand -25.3982 25.3416
lfingers 7.12502
lthumb 1.12696 55.3183
rfemur -14.3851 -4.39136 21.4484
rtibia 25.7389
rfoot -17.4965 8.03094
rtoes 28.9778
lfemur -11.1683 -2.36755 -20.325
ltibia 20.0963
lfoot -14.808 10.4955
ltoes -26.5284
770
root 12.7774 17.994 -22.2995 9.38355 -24.1658 -0.254059
lowerback 6.28 -2.44625 0.569343
upperback -4.18266 -3.20587 0.430902
thorax -7.92534 -1.59206 0.553115
lowerneck 8.81353 7.4194 14.7598
upperneck -21.7181 8.04261 -23.701
head -6.06907 4.86711 -11.1241
rclavicle 7.30347e-014 9.93923e-017
rhumerus -33.3843 -9.377 -63.0305
rradius 56.7196
rwrist 10.6344
rhand -11.7189 13.0571
rfingers 7.12502
rthumb 14.3279 -16.4285
lclavicle 7.30347e-014 9.93923e-017
lhumerus -34.1176 -10.399 63.9242
lradius 50.5486
lwrist 16.8258
lhand -23.3042 25.335
lfingers 7.12502
lthumb 3.14933 55.2915
rfemur -14.2652 -4.41179 21.7549
rtibia 25.7136
rfoot -17.3319 8.14273
rtoes 28.6591
lfemur -11.1149 -2.43306 -20.0031
ltibia 20.1745
lfoot -14.7609 10.6455
ltoes -26.3491
771
root 12.7758 17.9957 -22.2995 9.33583 -24.1115 -0.347034
lowerback 6.38249 -2.45415 0.617514
upperback -4.10644 -3.21055 0.426788
thorax -7.90609 -1.59659 0.525098
lowerneck 8.4534 7.46492 14.9245
upperneck -21.3802 8.12428 -23.7862
head -5.86548 4.88486 -11.1273
rclavicle 6.37664e-014 1.27222e-014
rhumerus -33.5704 -8.94663 -64.7796
rradius 55.93
rwrist 10.2095
rhand -11.0341 13.2962
rfingers 7.12502
rthumb 14.9877 -16.1414
lclavicle 6.37664e-014 1.27222e-014
lhumerus -34.4513 -10.9444 65.8146
lradius 50.5791
lwrist 16.9533
lhand -21.5281 25.0478
lfingers 7.12502
lthumb 4.86441 54.972
rfemur -14.1722 -4.45634 21.8227
rtibia 25.7113
rfoot -17.1598 8.3827
rtoes 29.0708
lfemur -11.067 -2.55406 -19.9104
ltibia 20.2375
lfoot -14.8107 10.9018
ltoes -26.4626
772
root 12.7756 17.9897 -22.299 9.08669 -24.054 -0.142956
lowerback 6.62167 -2.48316 0.398213
upperback -4.06993 -3.2735 0.366604
thorax -7.99708 -1.61605 0.603187
lowerneck 8.79619 7.46613 14.7216
upperneck -21.7694 8.12253 -23.5452
head -6.0773 4.89551 -11.0616
rclavicle 4.97303e-014 -1.0635e-014
rhumerus -33.9483 -8.66695 -66.2522
rradius 55.401
rwrist 9.88697
rhand -10.9179 13.4084
rfingers 7.12502
rthumb 15.0995 -16.0209
lclavicle 4.97303e-014 -1.0635e-014
lhumerus -35.0666 -11.303 67.6527
lradius 50.7749
lwrist 17.5536
lhand -20.6091 24.1462
lfingers 7.12502
lthumb 5.75178 54.0482
rfemur -14.0083 -4.54452 21.589
rtibia 25.7211
rfoot -17.1947 8.48327
rtoes 29.2524
lfemur -10.8902 -2.73922 -20.1385
ltibia 20.2824
lfoot -15.0157 11.1212
ltoes -25.8187
773
root 12.7774 17.9852 -22.2966 8.8848 -24.0099 -0.111168
lowerback 6.8246 -2.5427 0.396322
upperback -4.02117 -3.35303 0.350021
thorax -8.06369 -1.65421 0.60627
lowerneck 9.28873 7.38733 14.6374
upperneck -22.2748 8.00582 -23.4423
head -6.36261 4.8583 -11.0925
rclavicle 2.3674e-014 6.95746e-016
rhumerus -34.4272 -8.52401 -67.5193
rradius 55.3005
rwrist 9.72561
rhand -10.6533 13.8664
rfingers 7.12502
rthumb 15.3545 -15.5435
lclavicle 2.3674e-014 6.95746e-016
lhumerus -35.8017 -11.1571 69.2759
lradius 51.0636
lwrist 18.234
lhand -20.1062 22.9688
lfingers 7.12502
lthumb 6.23728 52.857
rfemur -13.8171 -4.55265 21.5237
rtibia 25.7657
rfoot -17.3949 8.33062
rtoes 28.729
lfemur -10.6502 -2.74336 -20.2106
ltibia 20.2612
lfoot -15.1813 11.1167
ltoes -25.182
774
root 12.7789 17.9809 -22.2929 8.84906 -23.9702 -0.344878
lowerback 6.92603 -2.63104 0.683505
upperback -4.00062 -3.43828 0.383902
thorax -8.11614 -1.70982 0.498263
lowerneck 9.83753 7.23767 14.7347
upperneck -22.6897 7.82349 -23.4386
head -6.62998 4.78484 -11.1908
rclavicle 2.58544e-014 9.83984e-015
rhumerus -35.0595 -8.52742 -68.5243
rradius 55.5988
rwrist 9.82026
rhand -10.2024 14.3608
rfingers 7.12502
rthumb 15.7887 -15.0153
lclavicle 2.58544e-014 9.83984e-015
lhumerus -36.6624 -10.3395 70.5125
lradius 51.5366
lwrist 18.5252
lhand -18.9786 23.3135
lfingers 7.12502
lthumb 7.32577 53.1666
rfemur -13.6348 -4.46834 21.7164
rtibia 25.7656
rfoot -17.5153 8.27865
rtoes 28.1703
lfemur -10.523 -2.62874 -20.0106
ltibia 20.2827
lfoot -15.3726 11.025
ltoes -25.0623
775
root 12.7785 17.9718 -22.2868 8.66736 -23.7232 -0.276738
lowerback 7.10093 -2.70942 0.715643
upperback -3.96091 -3.54155 0.336175
thorax -8.18082 -1.76248 0.452631
lowerneck 10.0028 7.08517 14.8362
upperneck -22.8485 7.64395 -23.3437
head -6.75153 4.6868 -11.2031
rclavicle 6.2114e-014 -3.77691e-015
rhumerus -35.7808 -9.11664 -68.9841
rradius 56.0335
rwrist 10.4467
rhand -9.8382 14.5746
rfingers 7.12502
rthumb 16.1395 -14.7735
lclavicle 6.2114e-014 -3.77691e-015
lhumerus -37.3105 -9.40753 71.5163
lradius 52.0168
lwrist 18.5179
lhand -17.7337 24.8749
lfingers 7.12502
lthumb 8.52734 54.6827
rfemur -13.3276 -4.30474 21.6317
rtibia 25.6708
rfoot -17.6635 8.05648
rtoes 27.5679
lfemur -10.467 -2.56967 -20.0745
ltibia 20.435
lfoot -15.7728 10.5668
ltoes -23.5941
776
root 12.7788 17.9577 -22.2794 8.53004 -23.3245 -0.190107
lowerback 7.18407 -2.78749 0.822981
upperback -3.82315 -3.64082 0.231823
thorax -8.09523 -1.81954 0.296951
lowerneck 9.54143 7.00308 15.1871
upperneck -22.6566 7.54132 -23.4606
head -6.59937 4.59922 -11.259
rclavicle 2.59538e-014 5.1684e-015
rhumerus -36.3607 -10.0368 -69.1316
rradius 56.6212
rwrist 10.8888
rhand -9.74861 14.6831
rfingers 7.12502
rthumb 16.2257 -14.6579
lclavicle 2.59538e-014 5.1684e-015
lhumerus -37.6072 -8.59873 72.1999
lradius 52.2958
lwrist 18.6564
lhand -17.642 24.8439
lfingers 7.12502
lthumb 8.61585 54.6481
rfemur -13.024 -4.08031 21.5539
rtibia 25.5371
rfoot -17.78 7.71891
rtoes 28.0502
lfemur -10.4859 -2.52295 -20.1405
ltibia 20.636
lfoot -15.9131 10.2223
ltoes -23.1227
777
root 12.7799 17.9395 -22.272 8.49811 -23.1104 -0.183762
lowerback 7.15442 -2.83773 1.0016
upperback -3.69566 -3.69512 0.146391
thorax -7.95891 -1.85814 0.109436
lowerneck 8.90348 6.98697 15.7594
upperneck -22.153 7.53294 -23.876
head -6.26546 4.55945 -11.4255
rclavicle 8.32411e-015 -1.78906e-015
rhumerus -36.8837 -10.6638 -69.0906
rradius 57.4002
rwrist 10.5369
rhand -9.88366 14.402
rfingers 7.12502
rthumb 16.0957 -14.9496
lclavicle 8.32411e-015 -1.78906e-015
lhumerus -37.9766 -7.67262 72.5145
lradius 52.583
lwrist 18.7329
lhand -17.695 25.5645
lfingers 7.12502
lthumb 8.56471 55.3708
rfemur -12.8868 -3.94518 21.5362
rtibia 25.4584
rfoot -17.8075 7.66045
rtoes 29.3123
lfemur -10.494 -2.52423 -20.1624
ltibia 20.7562
lfoot -15.8993 10.3452
ltoes -24.0991
